<svg width="131" height="131" viewBox="0 0 131 131" fill="none" xmlns="http://www.w3.org/2000/svg">
<path d="M0 65.364C0 29.2645 29.2645 0 65.364 0C101.464 0 130.728 29.2645 130.728 65.364V130.728H65.364C29.2645 130.728 0 101.464 0 65.364Z" fill="#EBE0FF"/>
<path d="M68.8012 73.969C67.2812 73.969 65.9512 73.646 64.8112 73C63.7092 72.392 63.1582 71.309 63.1582 69.751C63.1582 68.763 63.4052 67.661 63.8992 66.445C64.5832 67.205 65.2102 67.737 65.7802 68.041C66.3882 68.345 67.0342 68.497 67.7182 68.497C69.6182 68.497 71.0242 67.433 71.9362 65.305C72.8862 63.177 73.3612 60.821 73.3612 58.237C73.3612 53.411 71.5562 50.998 67.9462 50.998C66.9202 50.998 66.0462 51.055 65.3242 51.169L60.6502 73H52.4422L60.1942 36.748L68.6302 35.608L65.9512 48.262H66.2932C67.7372 48.262 69.0862 47.806 70.3402 46.894C71.5942 45.944 72.6012 44.766 73.3612 43.36C74.1212 41.916 74.5012 40.472 74.5012 39.028C74.5012 37.28 73.8742 35.817 72.6202 34.639C71.4042 33.461 69.5232 32.872 66.9772 32.872C64.6592 32.872 62.3982 33.404 60.1942 34.468C57.9902 35.494 56.1852 37.052 54.7792 39.142C53.4112 41.232 52.7272 43.759 52.7272 46.723C52.7272 48.129 52.8602 49.117 53.1262 49.687C53.3922 50.219 53.5252 50.523 53.5252 50.599C51.5112 50.599 49.9912 50.2 48.9652 49.402C47.9392 48.566 47.4262 47.217 47.4262 45.355C47.4262 42.771 48.3952 40.32 50.3332 38.002C52.2712 35.684 54.8362 33.822 58.0282 32.416C61.2202 30.972 64.5832 30.25 68.1172 30.25C70.7772 30.25 73.0192 30.668 74.8432 31.504C76.6672 32.34 78.0162 33.442 78.8902 34.81C79.8022 36.178 80.2582 37.679 80.2582 39.313C80.2582 41.061 79.7642 42.752 78.7762 44.386C77.7882 46.02 76.3822 47.35 74.5582 48.376C76.8382 48.794 78.5292 49.858 79.6312 51.568C80.7332 53.24 81.2842 55.235 81.2842 57.553C81.2842 59.719 80.8662 62.075 80.0302 64.621C79.2322 67.167 77.8832 69.371 75.9832 71.233C74.1212 73.057 71.7272 73.969 68.8012 73.969Z" fill="#864AFC"/>
<path d="M28.8279 87.974C27.7865 88.37 26.9799 88.986 26.4079 89.822C25.8359 90.6433 25.5499 91.6553 25.5499 92.858C25.5499 93.4007 25.6012 93.782 25.7039 94.002C25.8065 94.2073 25.8579 94.3247 25.8579 94.354C25.0659 94.354 24.4719 94.1927 24.0759 93.87C23.6945 93.5327 23.5039 92.9827 23.5039 92.22C23.5039 91.2813 23.8852 90.372 24.6479 89.492C25.4252 88.5973 26.4152 87.8787 27.6179 87.336C28.8205 86.7787 30.0232 86.5 31.2259 86.5C31.4312 86.5 31.7245 86.5147 32.1059 86.544L32.3039 100.074L36.9239 86.61H38.4639L32.3479 103H29.1799L28.8279 87.974ZM39.753 103.132C38.6677 103.132 37.8244 102.853 37.223 102.296C36.6217 101.724 36.321 100.837 36.321 99.634C36.321 98.622 36.519 97.5073 36.915 96.29C37.311 95.0727 37.9564 94.024 38.851 93.144C39.7457 92.2493 40.8824 91.802 42.261 91.802C43.8744 91.802 44.681 92.506 44.681 93.914C44.681 94.7353 44.4464 95.4907 43.977 96.18C43.5077 96.8693 42.8844 97.4267 42.107 97.852C41.3297 98.2627 40.501 98.4973 39.621 98.556C39.5917 98.996 39.577 99.2893 39.577 99.436C39.577 100.155 39.7017 100.646 39.951 100.91C40.2004 101.159 40.6037 101.284 41.161 101.284C41.953 101.284 42.6277 101.101 43.185 100.734C43.757 100.367 44.3804 99.81 45.055 99.062H45.803C44.175 101.775 42.1584 103.132 39.753 103.132ZM39.797 97.5C40.3397 97.4707 40.853 97.28 41.337 96.928C41.8357 96.576 42.2317 96.1287 42.525 95.586C42.833 95.0433 42.987 94.4713 42.987 93.87C42.987 93.2687 42.8037 92.968 42.437 92.968C41.909 92.968 41.3884 93.43 40.875 94.354C40.3764 95.278 40.017 96.3267 39.797 97.5ZM46.2464 92H49.4144L49.1284 93.364C49.6271 92.924 50.0744 92.5867 50.4704 92.352C50.8811 92.1173 51.3211 92 51.7904 92C52.2597 92 52.6264 92.1613 52.8904 92.484C53.1691 92.8067 53.3084 93.1953 53.3084 93.65C53.3084 94.0753 53.1691 94.4493 52.8904 94.772C52.6117 95.0947 52.2231 95.256 51.7244 95.256C51.4017 95.256 51.1817 95.1827 51.0644 95.036C50.9617 94.8747 50.8811 94.6473 50.8224 94.354C50.7784 94.1633 50.7344 94.024 50.6904 93.936C50.6464 93.848 50.5657 93.804 50.4484 93.804C50.1404 93.804 49.8764 93.87 49.6564 94.002C49.4511 94.1193 49.1797 94.332 48.8424 94.64L47.0824 103H43.9144L46.2464 92ZM56.1539 108.5C55.4645 108.5 54.8559 108.273 54.3279 107.818C53.8145 107.378 53.5579 106.813 53.5579 106.124C53.5579 105.479 53.7192 104.951 54.0419 104.54C54.3645 104.129 54.7825 103.807 55.2959 103.572C55.8092 103.337 56.4985 103.088 57.3639 102.824L57.5839 101.856C56.8359 102.707 55.9412 103.132 54.8999 103.132C54.1959 103.132 53.6239 102.912 53.1839 102.472C52.7585 102.032 52.5459 101.372 52.5459 100.492C52.5459 100.125 52.6045 99.6487 52.7219 99.062L54.2179 92H57.3859L55.8019 99.48C55.7579 99.656 55.7359 99.8393 55.7359 100.03C55.7359 100.675 55.9559 100.998 56.3959 100.998C56.8065 100.998 57.1585 100.829 57.4519 100.492C57.7452 100.14 57.9799 99.6633 58.1559 99.062L59.6519 92H62.8419L60.1579 104.76C59.8645 106.168 59.3439 107.143 58.5959 107.686C57.8625 108.229 57.0485 108.5 56.1539 108.5ZM55.6479 106.542C55.9119 106.542 56.1612 106.403 56.3959 106.124C56.6305 105.86 56.8139 105.427 56.9459 104.826L57.2099 103.528C56.4325 103.792 55.8312 104.1 55.4059 104.452C54.9805 104.804 54.7679 105.259 54.7679 105.816C54.7679 105.992 54.8559 106.153 55.0319 106.3C55.2079 106.461 55.4132 106.542 55.6479 106.542ZM72.0925 107.554C71.0219 107.554 70.1565 107.275 69.4965 106.718C68.8512 106.175 68.5285 105.457 68.5285 104.562C68.5285 104.005 68.6605 103.491 68.9245 103.022C69.1885 102.553 69.5479 102.186 70.0025 101.922C70.4572 101.643 70.9559 101.504 71.4985 101.504C72.0559 101.504 72.5032 101.643 72.8405 101.922C73.1925 102.201 73.3685 102.567 73.3685 103.022C73.3685 103.374 73.2879 103.653 73.1265 103.858C72.9945 103.682 72.8112 103.543 72.5765 103.44C72.3565 103.337 72.1219 103.286 71.8725 103.286C71.4325 103.286 71.0732 103.433 70.7945 103.726C70.5159 104.019 70.3765 104.401 70.3765 104.87C70.3765 105.339 70.5085 105.721 70.7725 106.014C71.0512 106.307 71.3959 106.454 71.8065 106.454C72.3199 106.454 72.7599 106.227 73.1265 105.772C73.4932 105.317 73.7719 104.643 73.9625 103.748L75.0625 98.886H74.9745C74.5785 99.4433 74.0945 99.8687 73.5225 100.162C72.9652 100.455 72.3492 100.602 71.6745 100.602C70.8239 100.602 70.0759 100.375 69.4305 99.92C68.7852 99.4653 68.2865 98.82 67.9345 97.984C67.5972 97.1333 67.4285 96.1507 67.4285 95.036C67.4285 93.4227 67.7805 91.956 68.4845 90.636C69.1885 89.3013 70.1565 88.2527 71.3885 87.49C72.6205 86.7273 73.9772 86.346 75.4585 86.346C76.7052 86.346 77.6879 86.6173 78.4065 87.16C79.1399 87.7027 79.5065 88.4433 79.5065 89.382C79.5065 90.0127 79.3525 90.5187 79.0445 90.9C78.7365 91.2813 78.3332 91.472 77.8345 91.472C77.5559 91.472 77.2919 91.4133 77.0425 91.296C76.8079 91.1787 76.6099 91.01 76.4485 90.79C76.7125 90.614 76.9325 90.3353 77.1085 89.954C77.2992 89.558 77.3945 89.162 77.3945 88.766C77.3945 88.326 77.2625 87.9887 76.9985 87.754C76.7492 87.5047 76.3899 87.38 75.9205 87.38C75.0699 87.38 74.2485 87.7613 73.4565 88.524C72.6645 89.272 72.0265 90.2547 71.5425 91.472C71.0585 92.6893 70.8165 93.9653 70.8165 95.3C70.8165 96.4 70.9925 97.2433 71.3445 97.83C71.6965 98.402 72.2025 98.688 72.8625 98.688C73.6545 98.688 74.3512 98.27 74.9525 97.434C75.5685 96.598 76.0599 95.3807 76.4265 93.782L79.0225 93.804L77.4165 101.196C76.9472 103.381 76.2799 104.987 75.4145 106.014C74.5639 107.041 73.4565 107.554 72.0925 107.554ZM82.6413 103.088C81.556 103.088 80.698 102.809 80.0673 102.252C79.4366 101.695 79.1213 100.815 79.1213 99.612C79.1213 98.6147 79.3266 97.5073 79.7373 96.29C80.148 95.0727 80.808 94.024 81.7173 93.144C82.6266 92.2493 83.7706 91.802 85.1493 91.802C87.0266 91.802 87.9653 92.9753 87.9653 95.322V95.344C88.0093 95.3587 88.09 95.366 88.2073 95.366C88.6913 95.366 89.2486 95.2413 89.8793 94.992C90.51 94.728 91.082 94.4127 91.5953 94.046L91.7933 94.64C91.368 95.0947 90.8106 95.4833 90.1213 95.806C89.4466 96.114 88.706 96.334 87.8993 96.466C87.782 97.8007 87.4813 98.9667 86.9973 99.964C86.5133 100.961 85.89 101.731 85.1273 102.274C84.3646 102.817 83.536 103.088 82.6413 103.088ZM83.5213 101.108C83.8733 101.108 84.2253 100.91 84.5773 100.514C84.9293 100.103 85.2373 99.5533 85.5013 98.864C85.7653 98.16 85.956 97.3827 86.0733 96.532C85.6773 96.444 85.4793 96.136 85.4793 95.608C85.4793 95.0067 85.7066 94.6107 86.1613 94.42C86.132 93.936 86.0586 93.606 85.9413 93.43C85.824 93.2393 85.6186 93.144 85.3253 93.144C84.8413 93.144 84.372 93.496 83.9173 94.2C83.4626 94.904 83.096 95.7473 82.8173 96.73C82.5386 97.7127 82.3993 98.578 82.3993 99.326C82.3993 100.03 82.48 100.507 82.6413 100.756C82.8026 100.991 83.096 101.108 83.5213 101.108ZM92.0093 103.088C90.9239 103.088 90.0659 102.809 89.4353 102.252C88.8046 101.695 88.4893 100.815 88.4893 99.612C88.4893 98.6147 88.6946 97.5073 89.1053 96.29C89.5159 95.0727 90.1759 94.024 91.0853 93.144C91.9946 92.2493 93.1386 91.802 94.5173 91.802C96.3946 91.802 97.3333 92.9753 97.3333 95.322V95.344C97.3773 95.3587 97.4579 95.366 97.5753 95.366C98.0593 95.366 98.6166 95.2413 99.2473 94.992C99.8779 94.728 100.45 94.4127 100.963 94.046L101.161 94.64C100.736 95.0947 100.179 95.4833 99.4893 95.806C98.8146 96.114 98.0739 96.334 97.2673 96.466C97.1499 97.8007 96.8493 98.9667 96.3653 99.964C95.8813 100.961 95.2579 101.731 94.4953 102.274C93.7326 102.817 92.9039 103.088 92.0093 103.088ZM92.8893 101.108C93.2413 101.108 93.5933 100.91 93.9453 100.514C94.2973 100.103 94.6053 99.5533 94.8693 98.864C95.1333 98.16 95.3239 97.3827 95.4413 96.532C95.0453 96.444 94.8473 96.136 94.8473 95.608C94.8473 95.0067 95.0746 94.6107 95.5293 94.42C95.4999 93.936 95.4266 93.606 95.3093 93.43C95.1919 93.2393 94.9866 93.144 94.6933 93.144C94.2093 93.144 93.7399 93.496 93.2853 94.2C92.8306 94.904 92.4639 95.7473 92.1853 96.73C91.9066 97.7127 91.7673 98.578 91.7673 99.326C91.7673 100.03 91.8479 100.507 92.0093 100.756C92.1706 100.991 92.4639 101.108 92.8893 101.108ZM100.805 103.132C99.9692 103.132 99.2726 102.846 98.7152 102.274C98.1579 101.702 97.8792 100.807 97.8792 99.59C97.8792 98.5047 98.0919 97.368 98.5172 96.18C98.9572 94.9773 99.6026 93.9653 100.453 93.144C101.319 92.308 102.345 91.89 103.533 91.89C104.135 91.89 104.582 91.9927 104.875 92.198C105.169 92.4033 105.315 92.6747 105.315 93.012V93.1L106.393 88.04L109.649 87.6L107.119 99.48C107.061 99.7 107.031 99.9127 107.031 100.118C107.031 100.705 107.332 100.998 107.933 100.998C108.197 100.998 108.432 100.954 108.637 100.866C108.579 101.599 108.315 102.164 107.845 102.56C107.391 102.941 106.848 103.132 106.217 103.132C105.631 103.132 105.132 102.985 104.721 102.692C104.325 102.384 104.061 101.922 103.929 101.306C103.049 102.523 102.008 103.132 100.805 103.132ZM102.235 100.998C102.558 100.998 102.881 100.859 103.203 100.58C103.541 100.301 103.79 99.9127 103.951 99.414L104.039 99.062L105.117 94.024C104.985 93.5107 104.685 93.254 104.215 93.254C103.629 93.254 103.101 93.5987 102.631 94.288C102.162 94.9627 101.795 95.784 101.531 96.752C101.267 97.7053 101.135 98.5487 101.135 99.282C101.135 100.015 101.238 100.485 101.443 100.69C101.663 100.895 101.927 100.998 102.235 100.998Z" fill="#864AFC"/>
</svg>
